M48
;Layer_Color=9474304
;FILE_FORMAT=2:4
INCH
;TYPE=PLATED
T1F00S00C0.0100
T2F00S00C0.0402
%
T01
X012600Y011000
X013092Y011009
X015000Y010859
X014950Y011650
X015300Y012300
Y012700
X014900Y013850
X014750Y014650
X014350Y014700
X015150
X013500Y014500
X013100
X012700
X012500Y014000
X011731Y014641
X011350Y014500
X011000Y015000
X010750Y013750
X012300Y015300
X015750Y014950
Y014550
X015700Y013200
X016300Y012550
X017750Y013250
Y015000
X017300
X016682Y015949
X017100Y016850
X015750Y016350
X014000Y016650
X011650Y016850
X010600Y016750
X010850Y015750
X011250
T02
X011100Y010500
Y011500
Y012500
X017400
Y011500
Y010500
M30
