%FSAX24Y24*%
%MOIN*%
G70*
G01*
G75*
G04 Layer_Physical_Order=1*
G04 Layer_Color=255*
%ADD10R,0.0866X0.0394*%
%ADD11R,0.0669X0.0236*%
%ADD12R,0.0236X0.0197*%
%ADD13R,0.0630X0.0551*%
%ADD14R,0.0169X0.0433*%
%ADD15R,0.0197X0.0217*%
%ADD16R,0.0354X0.0472*%
%ADD17R,0.0787X0.0236*%
%ADD18C,0.0080*%
%ADD19C,0.0400*%
%ADD20C,0.0160*%
%ADD21C,0.0598*%
%ADD22C,0.0181*%
G36*
X018221Y016524D02*
X018202Y016477D01*
X017378D01*
Y015964D01*
X018364D01*
X018377Y015919D01*
Y014081D01*
X018364Y014036D01*
X018327Y014036D01*
X017378D01*
Y013523D01*
X018327D01*
X018364Y013523D01*
X018377Y013478D01*
Y010103D01*
X011205D01*
X011194Y010150D01*
X011281Y010186D01*
X011356Y010244D01*
X011414Y010319D01*
X011450Y010406D01*
X011462Y010500D01*
X011450Y010594D01*
X011414Y010681D01*
X011356Y010756D01*
X011281Y010814D01*
X011194Y010850D01*
X011100Y010862D01*
X011006Y010850D01*
X010919Y010814D01*
X010844Y010756D01*
X010786Y010681D01*
X010750Y010594D01*
X010738Y010500D01*
X010750Y010406D01*
X010786Y010319D01*
X010844Y010244D01*
X010919Y010186D01*
X011006Y010150D01*
X010995Y010103D01*
X010103D01*
Y013970D01*
X010146Y013988D01*
X010153Y013988D01*
X011132D01*
Y014502D01*
X010153D01*
X010146Y014502D01*
X010103Y014520D01*
Y016903D01*
X010146Y016921D01*
X010146Y016921D01*
Y016921D01*
X010146Y016921D01*
X011132D01*
Y017397D01*
X017347D01*
X018221Y016524D01*
D02*
G37*
%LPC*%
G36*
X014628Y012962D02*
X014272D01*
Y012645D01*
X014357D01*
Y012540D01*
X014291D01*
Y011987D01*
X014836D01*
Y012171D01*
X015207D01*
Y012005D01*
X015172D01*
Y011688D01*
X015528D01*
Y012005D01*
X015393D01*
Y012192D01*
X015402Y012198D01*
X015433Y012245D01*
X015444Y012300D01*
X015433Y012355D01*
X015402Y012402D01*
X015355Y012433D01*
X015300Y012444D01*
X015245Y012433D01*
X015198Y012402D01*
X015168Y012356D01*
X014836D01*
Y012540D01*
X014543D01*
Y012645D01*
X014628D01*
Y012710D01*
X015147D01*
X015156Y012700D01*
X015167Y012645D01*
X015198Y012598D01*
X015245Y012567D01*
X015300Y012556D01*
X015355Y012567D01*
X015402Y012598D01*
X015433Y012645D01*
X015444Y012700D01*
X015433Y012755D01*
X015402Y012802D01*
X015355Y012833D01*
X015300Y012844D01*
X015289Y012842D01*
X015262Y012869D01*
X015232Y012889D01*
X015197Y012896D01*
X014628D01*
Y012962D01*
D02*
G37*
G36*
X017105Y015178D02*
X016315D01*
Y015093D01*
X016200D01*
X016164Y015086D01*
X016149Y015076D01*
X016134Y015066D01*
X015984Y014916D01*
X015964Y014886D01*
X015957Y014850D01*
Y014488D01*
X015903Y014434D01*
X015895Y014440D01*
X015895Y014440D01*
X015865Y014465D01*
X015865Y014466D01*
X015864Y014466D01*
X015864Y014466D01*
X015864Y014466D01*
X015867Y014471D01*
Y014471D01*
X015883Y014495D01*
X015894Y014550D01*
X015883Y014605D01*
X015852Y014652D01*
X015805Y014683D01*
X015750Y014694D01*
X015695Y014683D01*
X015648Y014652D01*
X015617Y014605D01*
X015606Y014550D01*
X015608Y014539D01*
X015562Y014493D01*
X014900D01*
X014897Y014492D01*
X014893Y014493D01*
X014879Y014489D01*
X014864Y014486D01*
X014862Y014484D01*
X014859Y014483D01*
X014709Y014408D01*
X014680Y014449D01*
X014739Y014508D01*
X014750Y014506D01*
X014805Y014517D01*
X014852Y014548D01*
X014883Y014595D01*
X014894Y014650D01*
X014883Y014705D01*
X014852Y014752D01*
X014822Y014772D01*
X014837Y014822D01*
X015001D01*
X015028Y014772D01*
X015017Y014755D01*
X015006Y014700D01*
X015017Y014645D01*
X015048Y014598D01*
X015095Y014567D01*
X015150Y014556D01*
X015205Y014567D01*
X015252Y014598D01*
X015283Y014645D01*
X015294Y014700D01*
X015283Y014755D01*
X015272Y014772D01*
X015299Y014822D01*
X015299D01*
Y015178D01*
X014391D01*
Y014822D01*
X014663D01*
X014678Y014772D01*
X014648Y014752D01*
X014617Y014705D01*
X014606Y014650D01*
X014608Y014639D01*
X014462Y014493D01*
X013650D01*
X013644Y014500D01*
X013633Y014555D01*
X013602Y014602D01*
X013555Y014633D01*
X013500Y014644D01*
X013445Y014633D01*
X013398Y014602D01*
X013367Y014555D01*
X013356Y014500D01*
X013367Y014445D01*
X013383Y014421D01*
X013383Y014421D01*
X013386Y014416D01*
X013386Y014416D01*
X013386Y014416D01*
X013385Y014416D01*
X013385Y014415D01*
X013355Y014390D01*
X013355Y014390D01*
X013347Y014384D01*
X013242Y014489D01*
X013244Y014500D01*
X013233Y014555D01*
X013202Y014602D01*
X013155Y014633D01*
X013100Y014644D01*
X013045Y014633D01*
X012998Y014602D01*
X012967Y014555D01*
X012956Y014500D01*
X012967Y014445D01*
X012983Y014421D01*
Y014421D01*
X012986Y014416D01*
X012986Y014416D01*
X012986Y014416D01*
X012985Y014416D01*
X012985Y014415D01*
X012955Y014390D01*
X012955Y014390D01*
X012947Y014384D01*
X012842Y014489D01*
X012844Y014500D01*
X012833Y014555D01*
X012802Y014602D01*
X012755Y014633D01*
X012700Y014644D01*
X012645Y014633D01*
X012598Y014602D01*
X012567Y014555D01*
X012556Y014500D01*
X012567Y014445D01*
X012598Y014398D01*
X012645Y014367D01*
X012700Y014356D01*
X012711Y014358D01*
X013134Y013934D01*
X013164Y013914D01*
X013167Y013914D01*
X013180Y013879D01*
X013179Y013860D01*
X013034Y013716D01*
X013014Y013686D01*
X013007Y013650D01*
Y012819D01*
X012717D01*
Y012147D01*
X013467D01*
Y012819D01*
X013193D01*
Y013612D01*
X013288Y013707D01*
X014750D01*
X014765Y013710D01*
X014779Y013712D01*
X014828Y013728D01*
X014845Y013717D01*
X014900Y013706D01*
X014955Y013717D01*
X015002Y013748D01*
X015033Y013795D01*
X015044Y013850D01*
X015033Y013905D01*
X015002Y013952D01*
X014955Y013983D01*
X014900Y013994D01*
X014845Y013983D01*
X014798Y013952D01*
X014767Y013905D01*
X014766Y013903D01*
X014735Y013893D01*
X014655D01*
X014643Y013943D01*
X014872Y014057D01*
X015750D01*
X015786Y014064D01*
X015816Y014084D01*
X016116Y014384D01*
X016126Y014399D01*
X016136Y014414D01*
X016143Y014450D01*
Y014812D01*
X016238Y014907D01*
X016315D01*
Y014822D01*
X017105D01*
Y015178D01*
D02*
G37*
G36*
X012483Y011953D02*
X011733D01*
Y011327D01*
Y011327D01*
X011733Y011324D01*
X011733Y011307D01*
Y011303D01*
Y011300D01*
X011731Y011299D01*
X011726Y011297D01*
X011721Y011294D01*
X011697Y011283D01*
X011697Y011283D01*
X011685Y011277D01*
X011462Y011500D01*
X011462Y011500D01*
X011450Y011594D01*
X011414Y011681D01*
X011356Y011756D01*
X011281Y011814D01*
X011194Y011850D01*
X011100Y011862D01*
X011006Y011850D01*
X010919Y011814D01*
X010844Y011756D01*
X010786Y011681D01*
X010750Y011594D01*
X010738Y011500D01*
X010750Y011406D01*
X010786Y011319D01*
X010844Y011244D01*
X010919Y011186D01*
X011006Y011150D01*
X011100Y011138D01*
X011100Y011138D01*
X011919Y010319D01*
X011919Y010319D01*
X012002Y010264D01*
X012100Y010244D01*
X012100Y010244D01*
X013399D01*
Y010204D01*
X013874D01*
Y010366D01*
X013900D01*
X013943Y010375D01*
X013951Y010377D01*
X013994Y010406D01*
X014019Y010430D01*
X014037Y010458D01*
X014055Y010464D01*
X014083Y010467D01*
X014097Y010464D01*
X014156Y010406D01*
X014199Y010377D01*
X014226Y010371D01*
Y010204D01*
X014701D01*
Y010244D01*
X016400D01*
X016400Y010244D01*
X016498Y010264D01*
X016581Y010319D01*
X017400Y011138D01*
X017400Y011138D01*
X017494Y011150D01*
X017581Y011186D01*
X017656Y011244D01*
X017714Y011319D01*
X017750Y011406D01*
X017762Y011500D01*
X017750Y011594D01*
X017714Y011681D01*
X017656Y011756D01*
X017581Y011814D01*
X017494Y011850D01*
X017400Y011862D01*
X017306Y011850D01*
X017219Y011814D01*
X017144Y011756D01*
X017086Y011681D01*
X017050Y011594D01*
X017038Y011500D01*
X017038Y011500D01*
X016294Y010756D01*
X014701D01*
Y010796D01*
X014314D01*
Y010963D01*
X014325D01*
Y011517D01*
X013779D01*
Y010963D01*
X013791D01*
Y010796D01*
X013399D01*
Y010756D01*
X012206D01*
X011729Y011233D01*
X011735Y011245D01*
X011735Y011245D01*
X011746Y011269D01*
X011748Y011275D01*
X011750Y011279D01*
X011751Y011281D01*
X011755D01*
X011758D01*
X011775Y011281D01*
X011779D01*
X011779D01*
X012483D01*
Y011953D01*
D02*
G37*
G36*
X017400Y012862D02*
X017306Y012850D01*
X017219Y012814D01*
X017144Y012756D01*
X017086Y012681D01*
X017050Y012594D01*
X017038Y012500D01*
X017050Y012406D01*
X017086Y012319D01*
X017144Y012244D01*
X017219Y012186D01*
X017306Y012150D01*
X017400Y012138D01*
X017494Y012150D01*
X017581Y012186D01*
X017656Y012244D01*
X017714Y012319D01*
X017750Y012406D01*
X017762Y012500D01*
X017750Y012594D01*
X017714Y012681D01*
X017656Y012756D01*
X017581Y012814D01*
X017494Y012850D01*
X017400Y012862D01*
D02*
G37*
G36*
X013409Y016178D02*
X012501D01*
Y016093D01*
X012500D01*
X012464Y016086D01*
X012434Y016066D01*
X012245Y015876D01*
X012204Y015888D01*
X012195Y015895D01*
Y016136D01*
X011405D01*
Y016032D01*
X011392Y016023D01*
X011261Y015892D01*
X011250Y015894D01*
X011195Y015883D01*
X011148Y015852D01*
X011117Y015805D01*
X011106Y015750D01*
X011117Y015695D01*
X011148Y015648D01*
X011195Y015617D01*
X011250Y015606D01*
X011305Y015617D01*
X011342Y015642D01*
X011347Y015645D01*
X011347Y015645D01*
X011347Y015644D01*
X011353Y015648D01*
X011361Y015648D01*
X011396Y015645D01*
X011397Y015644D01*
X011404Y015626D01*
X011405Y015601D01*
X011405Y015596D01*
Y015595D01*
Y015595D01*
Y015543D01*
X011088D01*
X010965Y015667D01*
X010983Y015695D01*
X010994Y015750D01*
X010983Y015805D01*
X010952Y015852D01*
X010905Y015883D01*
X010850Y015894D01*
X010795Y015883D01*
X010748Y015852D01*
X010717Y015805D01*
X010706Y015750D01*
X010717Y015695D01*
X010748Y015648D01*
X010759Y015641D01*
X010764Y015614D01*
X010784Y015584D01*
X010984Y015384D01*
X011014Y015364D01*
X011050Y015357D01*
X011405D01*
Y015288D01*
X012158D01*
X012167Y015245D01*
X012198Y015198D01*
X012245Y015167D01*
X012300Y015156D01*
X012355Y015167D01*
X012402Y015198D01*
X012433Y015245D01*
X012443Y015295D01*
X012456Y015306D01*
X012501Y015322D01*
D01*
Y015322D01*
X012501Y015322D01*
X013409D01*
Y015678D01*
X012501D01*
Y015593D01*
X012500D01*
X012464Y015586D01*
X012443Y015571D01*
X012414Y015580D01*
X012393Y015595D01*
Y015762D01*
X012455Y015824D01*
X012501Y015822D01*
Y015822D01*
X012501Y015822D01*
X013409D01*
Y016178D01*
D02*
G37*
G36*
X015299Y016678D02*
X014391D01*
Y016322D01*
X015299D01*
Y016407D01*
X015562D01*
X015608Y016361D01*
X015606Y016350D01*
X015617Y016295D01*
X015648Y016248D01*
X015695Y016217D01*
X015750Y016206D01*
X015805Y016217D01*
X015852Y016248D01*
X015883Y016295D01*
X015894Y016350D01*
X015883Y016405D01*
X015852Y016452D01*
X015805Y016483D01*
X015750Y016494D01*
X015739Y016492D01*
X015666Y016566D01*
X015636Y016586D01*
X015600Y016593D01*
X015299D01*
Y016678D01*
D02*
G37*
G36*
X013850Y016893D02*
X012000D01*
X011964Y016886D01*
X011934Y016866D01*
X011734Y016666D01*
X011714Y016636D01*
X011713Y016628D01*
X011405D01*
Y016543D01*
X010800D01*
X010764Y016536D01*
X010749Y016526D01*
X010734Y016516D01*
X010434Y016216D01*
X010414Y016186D01*
X010407Y016150D01*
Y015000D01*
X010414Y014964D01*
X010434Y014934D01*
X010784Y014584D01*
X010814Y014564D01*
X010830Y014561D01*
X010850Y014557D01*
X011162D01*
X011208Y014511D01*
X011206Y014500D01*
X011217Y014445D01*
X011248Y014398D01*
X011295Y014367D01*
X011350Y014356D01*
X011361Y014358D01*
X011451Y014268D01*
Y013418D01*
X011385D01*
Y013082D01*
X011580D01*
X011797Y012865D01*
X011778Y012819D01*
X011733D01*
Y012147D01*
X012483D01*
Y012819D01*
X012106D01*
X011702Y013223D01*
Y013418D01*
X011636D01*
Y014307D01*
X011629Y014342D01*
X011619Y014357D01*
X011609Y014372D01*
X011492Y014489D01*
X011494Y014500D01*
X011483Y014555D01*
X011452Y014602D01*
X011405Y014633D01*
X011350Y014644D01*
X011339Y014642D01*
X011266Y014716D01*
X011236Y014736D01*
X011200Y014743D01*
X010888D01*
X010593Y015038D01*
Y016112D01*
X010838Y016357D01*
X011405D01*
Y016272D01*
X012195D01*
Y016628D01*
X012025D01*
X012006Y016674D01*
X012038Y016707D01*
X012463D01*
X012501Y016678D01*
X012501Y016657D01*
Y016322D01*
X013409D01*
Y016657D01*
X013409Y016678D01*
X013447Y016707D01*
X013447Y016707D01*
X013812D01*
X013858Y016661D01*
X013856Y016650D01*
X013867Y016595D01*
X013898Y016548D01*
X013917Y016535D01*
Y016260D01*
X013921Y016243D01*
X013924Y016226D01*
X013924Y016225D01*
X013924Y016224D01*
X013934Y016210D01*
X013943Y016196D01*
X014193Y015936D01*
X014194Y015935D01*
X014194Y015934D01*
X014209Y015925D01*
X014223Y015915D01*
X014224Y015915D01*
X014224Y015914D01*
X014241Y015911D01*
X014258Y015907D01*
X014259Y015907D01*
X014260Y015907D01*
X014391D01*
Y015822D01*
X015299D01*
Y015907D01*
X015612D01*
X015635Y015884D01*
Y015732D01*
X015701D01*
Y015084D01*
X015695Y015083D01*
X015648Y015052D01*
X015617Y015005D01*
X015606Y014950D01*
X015617Y014895D01*
X015648Y014848D01*
X015695Y014817D01*
X015750Y014806D01*
X015805Y014817D01*
X015852Y014848D01*
X015883Y014895D01*
X015894Y014950D01*
X015886Y014992D01*
X015886Y014993D01*
Y015732D01*
X015952D01*
Y016068D01*
X015712D01*
X015686Y016086D01*
X015650Y016093D01*
X015299D01*
Y016178D01*
X014391D01*
Y016093D01*
X014299D01*
X014103Y016297D01*
Y016549D01*
X014133Y016595D01*
X014144Y016650D01*
X014133Y016705D01*
X014102Y016752D01*
X014055Y016783D01*
X014000Y016794D01*
X013989Y016792D01*
X013916Y016866D01*
X013886Y016886D01*
X013850Y016893D01*
D02*
G37*
G36*
X017750Y015144D02*
X017695Y015133D01*
X017648Y015102D01*
X017617Y015055D01*
X017606Y015000D01*
X017608Y014989D01*
X017219Y014601D01*
X017105D01*
Y014686D01*
X016315D01*
Y014330D01*
X016333D01*
X016352Y014284D01*
X015634Y013566D01*
X015614Y013536D01*
X015607Y013500D01*
Y013308D01*
X015598Y013302D01*
X015590Y013290D01*
X014628D01*
Y013355D01*
X014272D01*
Y013038D01*
X014628D01*
Y013104D01*
X015594D01*
X015598Y013098D01*
X015645Y013067D01*
X015657Y013064D01*
Y011568D01*
X015635D01*
Y011546D01*
X015528D01*
Y011612D01*
X015172D01*
Y011343D01*
X015122Y011293D01*
X014836D01*
Y011517D01*
X014547D01*
Y010963D01*
X014836D01*
Y011107D01*
X015160D01*
X015196Y011114D01*
X015226Y011134D01*
X015386Y011295D01*
X015528D01*
Y011360D01*
X015635D01*
Y011232D01*
X015952D01*
Y011568D01*
X015843D01*
Y013150D01*
X015839Y013171D01*
X015844Y013200D01*
X015833Y013255D01*
X015802Y013302D01*
X015793Y013308D01*
Y013462D01*
X016661Y014330D01*
X017105D01*
Y014415D01*
X017258D01*
X017293Y014422D01*
X017323Y014442D01*
X017739Y014858D01*
X017750Y014856D01*
X017805Y014867D01*
X017852Y014898D01*
X017883Y014945D01*
X017894Y015000D01*
X017883Y015055D01*
X017852Y015102D01*
X017805Y015133D01*
X017750Y015144D01*
D02*
G37*
%LPD*%
D10*
X010639Y017178D02*
D03*
Y014245D02*
D03*
X017871Y016220D02*
D03*
Y013780D02*
D03*
D11*
X011800Y016450D02*
D03*
Y015466D02*
D03*
Y015958D02*
D03*
Y014974D02*
D03*
X016710Y015000D02*
D03*
Y015492D02*
D03*
Y014508D02*
D03*
D12*
X014450Y013197D02*
D03*
Y012803D02*
D03*
X015350Y011453D02*
D03*
Y011847D02*
D03*
D13*
X012108Y012483D02*
D03*
X013092D02*
D03*
Y011617D02*
D03*
X012108D02*
D03*
D14*
X013924Y011240D02*
D03*
X014180D02*
D03*
X014436D02*
D03*
X014692D02*
D03*
Y012264D02*
D03*
X014436D02*
D03*
X014180D02*
D03*
X013924D02*
D03*
D15*
X016207Y011400D02*
D03*
X015793D02*
D03*
X011957Y013250D02*
D03*
X011543D02*
D03*
X016207Y015900D02*
D03*
X015793D02*
D03*
D16*
X013637Y010500D02*
D03*
X014463D02*
D03*
D17*
X012955Y016500D02*
D03*
Y016000D02*
D03*
Y015500D02*
D03*
Y015000D02*
D03*
X014845Y016500D02*
D03*
Y016000D02*
D03*
Y015500D02*
D03*
Y015000D02*
D03*
D18*
X011800Y016450D02*
Y016600D01*
X012000Y016800D01*
X010500Y016150D02*
X010800Y016450D01*
X011800D01*
X011250Y015750D02*
X011458Y015958D01*
X011800D01*
X014690Y011240D02*
X014700Y011200D01*
X010500Y015000D02*
Y016150D01*
X013850Y016800D02*
X014000Y016650D01*
X012000Y016800D02*
X013850D01*
X014010Y016260D02*
X014260Y016000D01*
X014010Y016260D02*
Y016650D01*
X014000D02*
X014010D01*
X014700Y011200D02*
X015160D01*
X010850Y015650D02*
Y015750D01*
Y015650D02*
X011050Y015450D01*
X011740D01*
X011800Y015510D01*
X013200Y014000D02*
X014550D01*
X014850Y014150D01*
X015750D01*
X016050Y014450D01*
Y014850D01*
X016200Y015000D01*
X016710D01*
X012700Y014500D02*
X013200Y014000D01*
X015600Y016500D02*
X015750Y016350D01*
X014970Y016500D02*
X015600D01*
X013100Y014500D02*
X013400Y014200D01*
X014500D01*
X014900Y014400D01*
X015600D02*
X015750Y014550D01*
X014900Y014400D02*
X015600D01*
X013500Y014500D02*
X013600Y014400D01*
X014500D01*
X014750Y014650D01*
X013100Y012490D02*
Y013650D01*
X013250Y013800D01*
X014750D01*
X014900Y013850D01*
X015150Y014700D02*
Y014900D01*
X014970Y015000D02*
X015150Y014900D01*
X010500Y015000D02*
X010850Y014650D01*
X011200D01*
X011350Y014500D01*
X014430Y012270D02*
X014450Y012290D01*
Y012803D01*
X012108Y012483D02*
Y012685D01*
X011543Y013250D02*
X012108Y012685D01*
X011543Y013250D02*
Y014307D01*
X011350Y014500D02*
X011543Y014307D01*
X012500Y016000D02*
X012955D01*
X012300Y015800D02*
X012500Y016000D01*
X012300Y015550D02*
Y015800D01*
X012260Y015510D02*
X012300Y015550D01*
X011800Y015510D02*
X012260D01*
X012500Y015500D02*
X012955D01*
X012300Y015300D02*
X012500Y015500D01*
X015793Y014993D02*
Y015900D01*
X015750Y014950D02*
X015793Y014993D01*
X015750Y015900D02*
X015793D01*
X015650Y016000D02*
X015750Y015900D01*
X014260Y016000D02*
X014845D01*
X015650D01*
X014450Y012803D02*
X015197D01*
X015300Y012700D01*
X015264Y012264D02*
X015300Y012300D01*
X014692Y012264D02*
X014706D01*
X015264D01*
X014690Y012270D02*
X014694Y012269D01*
X014706Y012264D01*
X015300Y011897D02*
Y012300D01*
Y011897D02*
X015350Y011847D01*
X015160Y011200D02*
X015350Y011390D01*
Y011453D01*
X015740D01*
X015750Y011443D01*
X015793Y011400D01*
X015750Y011443D02*
Y013150D01*
X015700Y013200D02*
X015750Y013150D01*
X014450Y013197D02*
X015697D01*
X015700Y013200D02*
Y013500D01*
X015697Y013197D02*
X015700Y013200D01*
X016710Y014508D02*
X016816D01*
X017258D01*
X016710Y014510D02*
X016710Y014510D01*
X016816Y014508D01*
X017258D02*
X017750Y015000D01*
X015700Y013500D02*
X016710Y014510D01*
D19*
X011100Y011500D02*
X012100Y010500D01*
X016400D02*
X017400Y011500D01*
X012100Y010500D02*
X013637D01*
X013637Y010500D01*
X014463Y010500D02*
X016400D01*
X014463Y010500D02*
X014463Y010500D01*
D20*
X014250Y010500D02*
X014463D01*
X014180Y010570D02*
X014250Y010500D01*
X014180Y010570D02*
Y011240D01*
X013924Y010524D02*
Y011240D01*
X013900Y010500D02*
X013924Y010524D01*
X013637Y010500D02*
X013900D01*
D21*
X011100Y010500D02*
D03*
Y011500D02*
D03*
Y012500D02*
D03*
X017400Y010500D02*
D03*
Y011500D02*
D03*
Y012500D02*
D03*
D22*
X016682Y015949D02*
D03*
X015000Y010859D02*
D03*
X013092Y011009D02*
D03*
X011731Y014641D02*
D03*
X011350Y014500D02*
D03*
X014000Y016650D02*
D03*
X017750Y015000D02*
D03*
X015750Y014950D02*
D03*
X014950Y011650D02*
D03*
X017100Y016850D02*
D03*
X011000Y015000D02*
D03*
X010600Y016750D02*
D03*
X017300Y015000D02*
D03*
X012600Y011000D02*
D03*
X014350Y014700D02*
D03*
X012500Y014000D02*
D03*
X010750Y013750D02*
D03*
X017750Y013250D02*
D03*
X016300Y012550D02*
D03*
X010850Y015750D02*
D03*
X011250D02*
D03*
X012700Y014500D02*
D03*
X015750Y016350D02*
D03*
X015300Y012300D02*
D03*
X013100Y014500D02*
D03*
X015750Y014550D02*
D03*
X013500Y014500D02*
D03*
X014750Y014650D02*
D03*
X014900Y013850D02*
D03*
X015150Y014700D02*
D03*
X015700Y013200D02*
D03*
X015300Y012700D02*
D03*
X012300Y015300D02*
D03*
X011650Y016850D02*
D03*
M02*
