%FSAX24Y24*%
%MOIN*%
G70*
G01*
G75*
G04 Layer_Color=32768*
%ADD10R,0.0866X0.0394*%
%ADD11R,0.0669X0.0236*%
%ADD12R,0.0236X0.0197*%
%ADD13R,0.0630X0.0551*%
%ADD14R,0.0169X0.0433*%
%ADD15R,0.0197X0.0217*%
%ADD16R,0.0354X0.0472*%
%ADD17R,0.0787X0.0236*%
%ADD18C,0.0080*%
%ADD19C,0.0400*%
%ADD20C,0.0160*%
%ADD21C,0.0598*%
%ADD22C,0.0181*%
%ADD23R,0.0236X0.0669*%
%ADD24R,0.0394X0.0866*%
%ADD25R,0.0217X0.0197*%
%ADD26R,0.0197X0.0236*%
%ADD27R,0.0315X0.0295*%
%ADD28R,0.1654X0.1654*%
%ADD29R,0.0335X0.0157*%
%ADD30R,0.0157X0.0335*%
%ADD31C,0.0100*%
%ADD32C,0.0138*%
%ADD33C,0.0098*%
%ADD34C,0.0051*%
%ADD35C,0.0079*%
%ADD36C,0.0050*%
D10*
X010639Y017178D02*
D03*
Y014245D02*
D03*
X017871Y016220D02*
D03*
Y013780D02*
D03*
D11*
X011800Y016450D02*
D03*
Y015466D02*
D03*
Y015958D02*
D03*
Y014974D02*
D03*
X016710Y015000D02*
D03*
Y015492D02*
D03*
Y014508D02*
D03*
D12*
X014450Y013197D02*
D03*
Y012803D02*
D03*
X015350Y011453D02*
D03*
Y011847D02*
D03*
D13*
X012108Y012483D02*
D03*
X013092D02*
D03*
Y011617D02*
D03*
X012108D02*
D03*
D14*
X013924Y011240D02*
D03*
X014180D02*
D03*
X014436D02*
D03*
X014692D02*
D03*
Y012264D02*
D03*
X014436D02*
D03*
X014180D02*
D03*
X013924D02*
D03*
D15*
X016207Y011400D02*
D03*
X015793D02*
D03*
X011957Y013250D02*
D03*
X011543D02*
D03*
X016207Y015900D02*
D03*
X015793D02*
D03*
D16*
X013637Y010500D02*
D03*
X014463D02*
D03*
D17*
X012955Y016500D02*
D03*
Y016000D02*
D03*
Y015500D02*
D03*
Y015000D02*
D03*
X014845Y016500D02*
D03*
Y016000D02*
D03*
Y015500D02*
D03*
Y015000D02*
D03*
M02*
