%FSAX24Y24*%
%MOIN*%
G70*
G01*
G75*
G04 Layer_Color=32896*
%ADD10R,0.0866X0.0394*%
%ADD11R,0.0669X0.0236*%
%ADD12R,0.0236X0.0197*%
%ADD13R,0.0630X0.0551*%
%ADD14R,0.0169X0.0433*%
%ADD15R,0.0197X0.0217*%
%ADD16R,0.0354X0.0472*%
%ADD17R,0.0787X0.0236*%
%ADD18C,0.0080*%
%ADD19C,0.0400*%
%ADD20C,0.0160*%
%ADD21C,0.0598*%
%ADD22C,0.0181*%
%ADD23R,0.0236X0.0669*%
%ADD24R,0.0394X0.0866*%
%ADD25R,0.0217X0.0197*%
%ADD26R,0.0197X0.0236*%
%ADD27R,0.0315X0.0295*%
%ADD28R,0.1654X0.1654*%
%ADD29R,0.0335X0.0157*%
%ADD30R,0.0157X0.0335*%
%ADD31C,0.0100*%
%ADD32C,0.0138*%
%ADD33C,0.0098*%
%ADD34C,0.0051*%
%ADD35C,0.0079*%
%ADD36C,0.0050*%
%ADD37R,0.0908X0.0436*%
%ADD38R,0.0711X0.0278*%
%ADD39R,0.0278X0.0239*%
%ADD40R,0.0709X0.0630*%
%ADD41R,0.0209X0.0472*%
%ADD42R,0.0239X0.0259*%
%ADD43R,0.0396X0.0514*%
%ADD44R,0.0829X0.0278*%
%ADD45C,0.0640*%
%ADD46R,0.0278X0.0711*%
%ADD47R,0.0436X0.0908*%
%ADD48R,0.0259X0.0239*%
%ADD49R,0.0239X0.0278*%
%ADD50R,0.0357X0.0337*%
%ADD51R,0.1696X0.1696*%
%ADD52R,0.0377X0.0199*%
%ADD53R,0.0199X0.0377*%
%ADD54C,0.0223*%
D32*
X013243Y015362D02*
G03*
X013243Y015362I-000061J000000D01*
G01*
X012209Y014613D02*
G03*
X012209Y014613I-000061J000000D01*
G01*
X016413Y015822D02*
G03*
X016413Y015822I-000061J000000D01*
G01*
X011510Y012880D02*
G03*
X011510Y012880I-000065J000000D01*
G01*
X017120Y010120D02*
G03*
X017120Y010120I-000065J000000D01*
G01*
X012734Y014047D02*
G03*
X012734Y014047I-000039J000000D01*
G01*
D34*
X016409Y015570D02*
Y017541D01*
X012621Y015570D02*
X016409D01*
X012616Y015575D02*
X012621Y015570D01*
X012616Y015575D02*
Y017540D01*
X012617Y017541D01*
X016409D01*
X009969Y014047D02*
Y017338D01*
Y014047D02*
X009970Y014046D01*
X011935D01*
X011940Y014051D01*
Y017338D01*
X009969D02*
X011940D01*
X016564Y013594D02*
X018531D01*
X016560Y013598D02*
X016564Y013594D01*
X016560Y013598D02*
Y016384D01*
X016565Y016388D01*
X018530D01*
X018531Y016387D01*
Y013594D02*
Y016387D01*
X006296Y009981D02*
Y012995D01*
Y009981D02*
X011203D01*
X006296Y012995D02*
X011219D01*
X011203Y009981D02*
X011227Y010005D01*
Y012987D01*
X011219Y012995D02*
X011227Y012987D01*
X017273Y012995D02*
X017297Y013019D01*
X017273Y010013D02*
X017281Y010005D01*
X022204D01*
Y013019D01*
X017273Y010013D02*
Y012995D01*
X017297Y013019D02*
X022204D01*
X012577Y011528D02*
Y013890D01*
Y011528D02*
X014939D01*
Y013890D01*
X012577D02*
X014939D01*
D36*
X016770Y012480D02*
X016728Y012522D01*
Y012605D01*
X016770Y012647D01*
X016812D01*
X016853Y012605D01*
Y012522D01*
X016895Y012480D01*
X016936D01*
X016978Y012522D01*
Y012605D01*
X016936Y012647D01*
X016853Y011574D02*
Y011408D01*
X016770Y011491D02*
X016936D01*
X016860Y010651D02*
Y010485D01*
X011614Y012384D02*
Y012550D01*
X011621Y011461D02*
Y011627D01*
X011705Y011544D02*
X011538D01*
X011705Y010555D02*
X011746Y010514D01*
Y010430D01*
X011705Y010389D01*
X011663D01*
X011621Y010430D01*
Y010514D01*
X011580Y010555D01*
X011538D01*
X011496Y010514D01*
Y010430D01*
X011538Y010389D01*
X012109Y010782D02*
X012151Y010741D01*
Y010657D01*
X012109Y010616D01*
X012068D01*
X012026Y010657D01*
Y010741D01*
X011984Y010782D01*
X011943D01*
X011901Y010741D01*
Y010657D01*
X011943Y010616D01*
X012151Y011032D02*
Y010866D01*
X011901D01*
Y011032D01*
X012026Y010866D02*
Y010949D01*
X011901Y011116D02*
X012151D01*
Y011241D01*
X012109Y011282D01*
X012026D01*
X011984Y011241D01*
Y011116D01*
Y011199D02*
X011901Y011282D01*
X012151Y011366D02*
X011984D01*
X011901Y011449D01*
X011984Y011532D01*
X012151D01*
Y011740D02*
Y011657D01*
X012109Y011615D01*
X011943D01*
X011901Y011657D01*
Y011740D01*
X011943Y011782D01*
X012109D01*
X012151Y011740D01*
Y012115D02*
Y012199D01*
Y012157D01*
X011901D01*
Y012115D01*
Y012199D01*
Y012324D02*
X012151D01*
X011901Y012490D01*
X012151D01*
X016394Y012559D02*
X016353Y012601D01*
Y012684D01*
X016394Y012726D01*
X016436D01*
X016478Y012684D01*
Y012601D01*
X016519Y012559D01*
X016561D01*
X016603Y012601D01*
Y012684D01*
X016561Y012726D01*
X016353Y012309D02*
Y012476D01*
X016603D01*
Y012309D01*
X016478Y012476D02*
Y012392D01*
X016603Y012226D02*
X016353D01*
Y012101D01*
X016394Y012059D01*
X016478D01*
X016519Y012101D01*
Y012226D01*
Y012142D02*
X016603Y012059D01*
X016353Y011976D02*
X016519D01*
X016603Y011893D01*
X016519Y011809D01*
X016353D01*
Y011601D02*
Y011684D01*
X016394Y011726D01*
X016561D01*
X016603Y011684D01*
Y011601D01*
X016561Y011559D01*
X016394D01*
X016353Y011601D01*
Y011101D02*
Y011184D01*
X016394Y011226D01*
X016561D01*
X016603Y011184D01*
Y011101D01*
X016561Y011060D01*
X016394D01*
X016353Y011101D01*
Y010976D02*
X016561D01*
X016603Y010935D01*
Y010851D01*
X016561Y010810D01*
X016353D01*
Y010726D02*
Y010560D01*
Y010643D01*
X016603D01*
X014964Y015006D02*
Y015256D01*
X014839D01*
X014797Y015215D01*
Y015131D01*
X014839Y015090D01*
X014964D01*
X014714Y015006D02*
Y015256D01*
X014589D01*
X014548Y015215D01*
Y015131D01*
X014589Y015090D01*
X014714D01*
X014631D02*
X014548Y015006D01*
X014339Y015256D02*
X014423D01*
X014464Y015215D01*
Y015048D01*
X014423Y015006D01*
X014339D01*
X014298Y015048D01*
Y015215D01*
X014339Y015256D01*
X014048Y015215D02*
X014089Y015256D01*
X014173D01*
X014214Y015215D01*
Y015048D01*
X014173Y015006D01*
X014089D01*
X014048Y015048D01*
Y015131D01*
X014131D01*
X012412Y015336D02*
X012454Y015295D01*
Y015212D01*
X012412Y015170D01*
X012245D01*
X012204Y015212D01*
Y015295D01*
X012245Y015336D01*
X012204Y015420D02*
X012370D01*
X012454Y015503D01*
X012370Y015586D01*
X012204D01*
X012329D01*
Y015420D01*
X012204Y015670D02*
X012454D01*
X012204Y015836D01*
X012454D01*
X012204Y016336D02*
Y016170D01*
X012370Y016336D01*
X012412D01*
X012454Y016294D01*
Y016211D01*
X012412Y016170D01*
X016039Y015227D02*
X015997Y015269D01*
Y015352D01*
X016039Y015394D01*
X016081D01*
X016122Y015352D01*
Y015269D01*
X016164Y015227D01*
X016206D01*
X016247Y015269D01*
Y015352D01*
X016206Y015394D01*
X015997Y014977D02*
Y015144D01*
X016247D01*
Y014977D01*
X016122Y015144D02*
Y015061D01*
X016247Y014894D02*
X015997D01*
X016247Y014727D01*
X015997D01*
X016039Y014477D02*
X015997Y014519D01*
Y014602D01*
X016039Y014644D01*
X016081D01*
X016122Y014602D01*
Y014519D01*
X016164Y014477D01*
X016206D01*
X016247Y014519D01*
Y014602D01*
X016206Y014644D01*
X015997Y014228D02*
Y014394D01*
X016247D01*
Y014228D01*
X016122Y014394D02*
Y014311D01*
X016247Y013728D02*
Y013894D01*
X016081Y013728D01*
X016039D01*
X015997Y013769D01*
Y013853D01*
X016039Y013894D01*
M02*
