%FSAX24Y24*%
%MOIN*%
G70*
G01*
G75*
G04 Layer_Color=16711935*
%ADD10R,0.0866X0.0394*%
%ADD11R,0.0669X0.0236*%
%ADD12R,0.0236X0.0197*%
%ADD13R,0.0630X0.0551*%
%ADD14R,0.0169X0.0433*%
%ADD15R,0.0197X0.0217*%
%ADD16R,0.0354X0.0472*%
%ADD17R,0.0787X0.0236*%
%ADD18C,0.0080*%
%ADD19C,0.0400*%
%ADD20C,0.0160*%
%ADD21C,0.0598*%
%ADD22C,0.0181*%
%ADD23R,0.0236X0.0669*%
%ADD24R,0.0394X0.0866*%
%ADD25R,0.0217X0.0197*%
%ADD26R,0.0197X0.0236*%
%ADD27R,0.0315X0.0295*%
%ADD28R,0.1654X0.1654*%
%ADD29R,0.0335X0.0157*%
%ADD30R,0.0157X0.0335*%
%ADD31C,0.0100*%
%ADD32C,0.0138*%
%ADD33C,0.0098*%
%ADD34C,0.0051*%
%ADD35C,0.0079*%
%ADD36C,0.0050*%
%ADD37R,0.0908X0.0436*%
%ADD38R,0.0711X0.0278*%
%ADD39R,0.0278X0.0239*%
%ADD40R,0.0709X0.0630*%
%ADD41R,0.0209X0.0472*%
%ADD42R,0.0239X0.0259*%
%ADD43R,0.0396X0.0514*%
%ADD44R,0.0829X0.0278*%
%ADD45C,0.0640*%
%ADD46R,0.0278X0.0711*%
%ADD47R,0.0436X0.0908*%
%ADD48R,0.0259X0.0239*%
%ADD49R,0.0239X0.0278*%
%ADD50R,0.0357X0.0337*%
%ADD51R,0.1696X0.1696*%
%ADD52R,0.0377X0.0199*%
%ADD53R,0.0199X0.0377*%
%ADD54C,0.0223*%
D37*
X010639Y014222D02*
D03*
Y017155D02*
D03*
X017861Y013772D02*
D03*
Y016213D02*
D03*
D38*
X011800Y014950D02*
D03*
Y015934D02*
D03*
Y015442D02*
D03*
Y016426D02*
D03*
X016700Y014992D02*
D03*
Y014500D02*
D03*
Y015484D02*
D03*
D39*
X012359Y017168D02*
D03*
Y016774D02*
D03*
X012000Y013803D02*
D03*
Y014197D02*
D03*
D42*
X016207Y011900D02*
D03*
X015793D02*
D03*
D45*
X011100Y010500D02*
D03*
Y011500D02*
D03*
Y012500D02*
D03*
X017400Y010500D02*
D03*
Y011500D02*
D03*
Y012500D02*
D03*
D46*
X014996Y015710D02*
D03*
X014012D02*
D03*
X014504D02*
D03*
X013520D02*
D03*
X015489D02*
D03*
D47*
X012792Y016871D02*
D03*
X016217D02*
D03*
D48*
X012650Y015407D02*
D03*
Y014993D02*
D03*
X011350Y013193D02*
D03*
Y013607D02*
D03*
D49*
X014303Y010500D02*
D03*
X014697D02*
D03*
X013697Y015000D02*
D03*
X013303D02*
D03*
X012553Y010500D02*
D03*
X012947D02*
D03*
D50*
X015995Y011050D02*
D03*
X015405D02*
D03*
D51*
X013758Y012709D02*
D03*
D52*
X012577Y013477D02*
D03*
Y013221D02*
D03*
Y012965D02*
D03*
Y012709D02*
D03*
Y012453D02*
D03*
Y012197D02*
D03*
Y011941D02*
D03*
X014939Y013477D02*
D03*
Y013221D02*
D03*
Y012965D02*
D03*
Y012709D02*
D03*
Y012453D02*
D03*
Y012197D02*
D03*
Y011941D02*
D03*
D53*
X014525Y013890D02*
D03*
X014270D02*
D03*
X014014D02*
D03*
X013758D02*
D03*
X013502D02*
D03*
X013246D02*
D03*
X012990D02*
D03*
Y011528D02*
D03*
X013246D02*
D03*
X013502D02*
D03*
X013758D02*
D03*
X014014D02*
D03*
X014270D02*
D03*
X014525D02*
D03*
D54*
X011350Y014500D02*
D03*
X014000Y016650D02*
D03*
X017750Y015000D02*
D03*
X015750Y014950D02*
D03*
X014950Y011650D02*
D03*
X017100Y016850D02*
D03*
X011000Y015000D02*
D03*
X010600Y016750D02*
D03*
X017300Y015000D02*
D03*
X012600Y011000D02*
D03*
X014350Y014700D02*
D03*
X012500Y014000D02*
D03*
X010750Y013750D02*
D03*
X017750Y013250D02*
D03*
X016300Y012550D02*
D03*
X010850Y015750D02*
D03*
X011250D02*
D03*
X012700Y014500D02*
D03*
X015750Y016350D02*
D03*
X015300Y012300D02*
D03*
X013100Y014500D02*
D03*
X015750Y014550D02*
D03*
X013500Y014500D02*
D03*
X014750Y014650D02*
D03*
X014900Y013850D02*
D03*
X015150Y014700D02*
D03*
X015700Y013200D02*
D03*
X015300Y012700D02*
D03*
X012300Y015300D02*
D03*
X011650Y016850D02*
D03*
M02*
